<svg width="222" height="82" viewBox="0 0 222 82" fill="none" xmlns="http://www.w3.org/2000/svg">
<path d="M30.7 52.0527C30.2333 52.5193 29.55 52.8693 28.65 53.1027C27.7833 53.3693 26.7333 53.5027 25.5 53.5027C24.2667 53.5027 23.1 53.3193 22 52.9527C20.9 52.586 20 51.7027 19.3 50.3027L14.35 40.2027C13.85 39.1693 13.4 38.2027 13 37.3027C12.6 36.3693 12.1667 35.3027 11.7 34.1027L11.4 34.1527C11.5333 35.9527 11.6 37.786 11.6 39.6527C11.6333 41.5193 11.65 43.3527 11.65 45.1527V52.9027C11.2833 53.0027 10.7167 53.1027 9.95 53.2027C9.21667 53.3027 8.48333 53.3527 7.75 53.3527C7.01667 53.3527 6.36667 53.3027 5.8 53.2027C5.23333 53.1027 4.76667 52.9027 4.4 52.6027C4.03333 52.3027 3.75 51.9027 3.55 51.4027C3.35 50.8693 3.25 50.186 3.25 49.3527V24.3527C3.71667 23.686 4.43333 23.186 5.4 22.8527C6.36667 22.5193 7.4 22.3527 8.5 22.3527C9.73333 22.3527 10.9 22.5527 12 22.9527C13.1333 23.3193 14.0333 24.186 14.7 25.5527L19.7 35.6527C20.2 36.686 20.65 37.6693 21.05 38.6027C21.45 39.5027 21.8833 40.5527 22.35 41.7527L22.6 41.7027C22.4667 39.9027 22.3833 38.1027 22.35 36.3027C22.3167 34.5027 22.3 32.7027 22.3 30.9027V22.8027C22.6667 22.7027 23.2167 22.6027 23.95 22.5027C24.7167 22.4027 25.4667 22.3527 26.2 22.3527C27.6667 22.3527 28.7833 22.6193 29.55 23.1527C30.3167 23.6527 30.7 24.7193 30.7 26.3527V52.0527ZM49.3855 53.9027C47.4189 53.9027 45.5855 53.636 43.8855 53.1027C42.2189 52.536 40.7522 51.7027 39.4855 50.6027C38.2522 49.5027 37.2689 48.1193 36.5355 46.4527C35.8355 44.786 35.4855 42.836 35.4855 40.6027C35.4855 38.4027 35.8355 36.5193 36.5355 34.9527C37.2689 33.3527 38.2189 32.0527 39.3855 31.0527C40.5522 30.0193 41.8855 29.2693 43.3855 28.8027C44.8855 28.3027 46.4189 28.0527 47.9855 28.0527C49.7522 28.0527 51.3522 28.3193 52.7855 28.8527C54.2522 29.386 55.5022 30.1193 56.5355 31.0527C57.6022 31.986 58.4189 33.1027 58.9855 34.4027C59.5855 35.7027 59.8855 37.1193 59.8855 38.6527C59.8855 39.786 59.5689 40.6527 58.9355 41.2527C58.3022 41.8527 57.4189 42.236 56.2855 42.4027L43.9355 44.2527C44.3022 45.3527 45.0522 46.186 46.1855 46.7527C47.3189 47.286 48.6189 47.5527 50.0855 47.5527C51.4522 47.5527 52.7355 47.386 53.9355 47.0527C55.1689 46.686 56.1689 46.2693 56.9355 45.8027C57.4689 46.136 57.9189 46.6027 58.2855 47.2027C58.6522 47.8027 58.8355 48.436 58.8355 49.1027C58.8355 50.6027 58.1355 51.7193 56.7355 52.4527C55.6689 53.0193 54.4689 53.4027 53.1355 53.6027C51.8022 53.8027 50.5522 53.9027 49.3855 53.9027ZM47.9855 34.2527C47.1855 34.2527 46.4855 34.386 45.8855 34.6527C45.3189 34.9193 44.8522 35.2693 44.4855 35.7027C44.1189 36.1027 43.8355 36.5693 43.6355 37.1027C43.4689 37.6027 43.3689 38.1193 43.3355 38.6527L51.8855 37.2527C51.7855 36.586 51.4189 35.9193 50.7855 35.2527C50.1522 34.586 49.2189 34.2527 47.9855 34.2527ZM74.377 47.7027C74.9436 47.7027 75.5603 47.6527 76.227 47.5527C76.927 47.4193 77.4436 47.2527 77.777 47.0527V43.0527L74.177 43.3527C73.2436 43.4193 72.477 43.6193 71.877 43.9527C71.277 44.286 70.977 44.786 70.977 45.4527C70.977 46.1193 71.227 46.6693 71.727 47.1027C72.2603 47.5027 73.1436 47.7027 74.377 47.7027ZM73.977 28.0527C75.777 28.0527 77.4103 28.236 78.877 28.6027C80.377 28.9693 81.6436 29.536 82.677 30.3027C83.7436 31.036 84.5603 31.986 85.127 33.1527C85.6936 34.286 85.977 35.636 85.977 37.2027V48.4027C85.977 49.2693 85.727 49.986 85.227 50.5527C84.7603 51.086 84.1936 51.5527 83.527 51.9527C81.3603 53.2527 78.3103 53.9027 74.377 53.9027C72.6103 53.9027 71.0103 53.736 69.577 53.4027C68.177 53.0693 66.9603 52.5693 65.927 51.9027C64.927 51.236 64.1436 50.386 63.577 49.3527C63.0436 48.3193 62.777 47.1193 62.777 45.7527C62.777 43.4527 63.4603 41.686 64.827 40.4527C66.1936 39.2193 68.3103 38.4527 71.177 38.1527L77.727 37.4527V37.1027C77.727 36.136 77.2936 35.4527 76.427 35.0527C75.5936 34.6193 74.377 34.4027 72.777 34.4027C71.5103 34.4027 70.277 34.536 69.077 34.8027C67.877 35.0693 66.7936 35.4027 65.827 35.8027C65.3936 35.5027 65.027 35.0527 64.727 34.4527C64.427 33.8193 64.277 33.1693 64.277 32.5027C64.277 31.636 64.477 30.9527 64.877 30.4527C65.3103 29.9193 65.9603 29.4693 66.827 29.1027C67.7936 28.736 68.927 28.4693 70.227 28.3027C71.5603 28.136 72.8103 28.0527 73.977 28.0527ZM99.6742 53.0527C99.3409 53.1527 98.8076 53.2527 98.0742 53.3527C97.3742 53.4527 96.6409 53.5027 95.8742 53.5027C95.1409 53.5027 94.4742 53.4527 93.8742 53.3527C93.3076 53.2527 92.8242 53.0527 92.4242 52.7527C92.0242 52.4527 91.7076 52.0527 91.4742 51.5527C91.2742 51.0193 91.1742 50.336 91.1742 49.5027V34.5027C91.1742 33.736 91.3076 33.086 91.5742 32.5527C91.8742 31.986 92.2909 31.486 92.8242 31.0527C93.3576 30.6193 94.0076 30.236 94.7742 29.9027C95.5742 29.536 96.4242 29.2193 97.3242 28.9527C98.2242 28.686 99.1576 28.486 100.124 28.3527C101.091 28.186 102.058 28.1027 103.024 28.1027C104.624 28.1027 105.891 28.4193 106.824 29.0527C107.758 29.6527 108.224 30.6527 108.224 32.0527C108.224 32.5193 108.158 32.986 108.024 33.4527C107.891 33.886 107.724 34.286 107.524 34.6527C106.824 34.6527 106.108 34.686 105.374 34.7527C104.641 34.8193 103.924 34.9193 103.224 35.0527C102.524 35.186 101.858 35.336 101.224 35.5027C100.624 35.636 100.108 35.8027 99.6742 36.0027V53.0527Z" fill="black"/>
<path d="M120.881 46.8527C121.348 46.986 121.948 47.086 122.681 47.1527C123.414 47.186 124.114 47.2027 124.781 47.2027C126.114 47.2027 127.214 46.936 128.081 46.4027C128.981 45.836 129.431 44.9693 129.431 43.8027C129.431 42.7027 129.064 41.9193 128.331 41.4527C127.598 40.986 126.481 40.7527 124.981 40.7527H120.881V46.8527ZM120.881 34.6527H124.531C125.964 34.6527 126.998 34.386 127.631 33.8527C128.298 33.3193 128.631 32.536 128.631 31.5027C128.631 30.6027 128.248 29.886 127.481 29.3527C126.748 28.8193 125.631 28.5527 124.131 28.5527C123.631 28.5527 123.048 28.5693 122.381 28.6027C121.748 28.636 121.248 28.686 120.881 28.7527V34.6527ZM124.131 53.9027C123.564 53.9027 122.898 53.886 122.131 53.8527C121.364 53.8193 120.564 53.7527 119.731 53.6527C118.931 53.5527 118.131 53.4193 117.331 53.2527C116.531 53.1193 115.798 52.9193 115.131 52.6527C113.298 51.9527 112.381 50.736 112.381 49.0027V25.6527C112.381 24.9527 112.564 24.4193 112.931 24.0527C113.331 23.6527 113.864 23.336 114.531 23.1027C115.664 22.7027 117.081 22.4193 118.781 22.2527C120.481 22.0527 122.231 21.9527 124.031 21.9527C128.298 21.9527 131.581 22.6693 133.881 24.1027C136.181 25.536 137.331 27.7527 137.331 30.7527C137.331 32.2527 136.898 33.5527 136.031 34.6527C135.164 35.7193 133.998 36.5027 132.531 37.0027C134.198 37.4693 135.581 38.3193 136.681 39.5527C137.814 40.786 138.381 42.336 138.381 44.2027C138.381 47.5027 137.148 49.9527 134.681 51.5527C132.248 53.1193 128.731 53.9027 124.131 53.9027Z" fill="#00459E"/>
<path d="M195.772 47.1867C195.482 46.3237 195.168 45.358 194.83 44.2898C194.525 43.2246 194.2 42.0069 193.856 40.6369C193.544 39.2699 193.217 37.7173 192.872 35.9791C192.564 34.2107 192.245 32.1903 191.915 29.918C192.422 29.4953 193.073 29.1526 193.866 28.8899C194.696 28.597 195.576 28.4926 196.505 28.5769C197.667 28.6822 198.607 29.0185 199.326 29.5856C200.047 30.1196 200.53 31.0671 200.775 32.4281L203.467 46.4786L203.667 46.4966C204.167 45.404 204.66 44.2104 205.146 42.9156C205.665 41.6238 206.17 40.2973 206.661 38.9361C207.156 37.5418 207.616 36.161 208.041 34.7938C208.502 33.3964 208.911 32.0277 209.267 30.6877C210.519 30.1653 211.859 29.9688 213.286 30.0982C214.448 30.2035 215.388 30.5398 216.107 31.1069C216.825 31.6741 217.129 32.5719 217.017 33.8002C216.936 34.6965 216.725 35.7317 216.384 36.9057C216.047 38.0465 215.619 39.2628 215.1 40.5546C214.614 41.8494 214.041 43.1864 213.381 44.5658C212.756 45.9149 212.1 47.2444 211.412 48.5544C210.725 49.8643 210.026 51.1063 209.317 52.2804C208.612 53.4214 207.933 54.4476 207.281 55.3592C206.204 56.9016 205.221 58.1512 204.331 59.1081C203.441 60.065 202.605 60.7925 201.823 61.2906C201.039 61.822 200.272 62.1541 199.524 62.2871C198.773 62.4533 197.999 62.5003 197.202 62.428C195.808 62.3016 194.716 61.7843 193.929 60.8762C193.141 59.968 192.724 58.8424 192.678 57.4995C193.816 56.7659 194.962 55.9327 196.118 54.9998C197.271 54.1002 198.327 53.1584 199.286 52.1743C198.737 51.9572 198.157 51.5197 197.547 50.862C196.974 50.1741 196.382 48.949 195.772 47.1867Z" fill="#00459E"/>
<path d="M174.667 24.7276C174.667 25.3354 174.425 25.9183 173.995 26.3481C173.566 26.7779 172.983 27.0193 172.375 27.0193C171.767 27.0193 171.184 26.7779 170.755 26.3481C170.325 25.9183 170.083 25.3354 170.083 24.7276C170.083 24.1199 170.325 23.537 170.755 23.1072C171.184 22.6774 171.767 22.436 172.375 22.436C172.983 22.436 173.566 22.6774 173.995 23.1072C174.425 23.537 174.667 24.1199 174.667 24.7276ZM160.917 24.7276C160.917 25.3354 160.675 25.9183 160.245 26.3481C159.816 26.7779 159.233 27.0193 158.625 27.0193C158.017 27.0193 157.434 26.7779 157.005 26.3481C156.575 25.9183 156.333 25.3354 156.333 24.7276C156.333 24.1199 156.575 23.537 157.005 23.1072C157.434 22.6774 158.017 22.436 158.625 22.436C159.233 22.436 159.816 22.6774 160.245 23.1072C160.675 23.537 160.917 24.1199 160.917 24.7276Z" fill="#00459E"/>
<mask id="path-4-outside-1_4_55" maskUnits="userSpaceOnUse" x="142.189" y="5.96722" width="47" height="49" fill="black">
<rect fill="white" x="142.189" y="5.96722" width="47" height="49"/>
<path fill-rule="evenodd" clip-rule="evenodd" d="M165.5 10.4047C164.132 10.4047 162.821 10.948 161.854 11.915C160.887 12.8819 160.344 14.1935 160.344 15.561V16.1431C161.3 16.1354 162.335 16.1324 163.449 16.1339H167.551C168.666 16.1324 169.701 16.1354 170.656 16.1431V15.561C170.656 14.1935 170.113 12.8819 169.146 11.915C168.179 10.948 166.868 10.4047 165.5 10.4047ZM174.094 16.2645V15.561C174.094 13.2818 173.188 11.0959 171.577 9.48428C169.965 7.87263 167.779 6.96722 165.5 6.96722C163.221 6.96722 161.035 7.87263 159.423 9.48428C157.812 11.0959 156.906 13.2818 156.906 15.561V16.2645C156.598 16.2859 156.299 16.3126 156.01 16.3447C153.998 16.5624 152.314 17.0162 150.82 18.0406C150.307 18.3948 149.824 18.7903 149.376 19.2231C148.079 20.4881 147.302 22.051 146.695 23.9806C146.106 25.8574 145.629 28.2408 145.029 31.236L144.985 31.4537C144.123 35.7689 143.443 39.1697 143.248 41.8785C143.046 44.6468 143.326 46.9728 144.637 48.9918C145.077 49.6671 145.584 50.2858 146.158 50.8481C147.882 52.5301 150.109 53.2589 152.861 53.6072C155.556 53.9464 159.026 53.9464 163.426 53.9464H167.574C171.976 53.9464 175.444 53.9464 178.139 53.6072C180.891 53.2589 183.121 52.5301 184.842 50.8481C185.415 50.2867 185.925 49.6642 186.363 48.9918C187.674 46.9751 187.954 44.6468 187.754 41.8785C187.557 39.1697 186.879 35.7689 186.013 31.4537L185.971 31.236C185.373 28.2408 184.894 25.8574 184.305 23.9806C183.698 22.051 182.921 20.4881 181.624 19.2231C181.176 18.7903 180.693 18.3948 180.18 18.0406C178.686 17.0162 177.002 16.5624 174.99 16.3447C174.692 16.3127 174.394 16.2859 174.096 16.2645M156.379 19.7616C154.667 19.9449 153.611 20.2956 152.763 20.8753C152.411 21.1174 152.081 21.3888 151.775 21.6866C151.04 22.4039 150.492 23.371 149.974 25.0118C149.447 26.6916 149.002 28.8916 148.381 32.006C147.487 36.4701 146.853 39.6601 146.676 42.126C146.5 44.5597 146.795 46.0058 147.52 47.1195C147.819 47.5809 148.166 48.0041 148.56 48.3891C149.511 49.3172 150.87 49.8901 153.292 50.1972C155.744 50.5066 158.999 50.5089 163.55 50.5089H167.452C172.004 50.5089 175.253 50.5066 177.708 50.1972C180.13 49.8901 181.489 49.3172 182.44 48.3891C182.832 48.0049 183.181 47.5792 183.48 47.1195C184.205 46.0058 184.5 44.5597 184.326 42.1237C184.147 39.6578 183.512 36.4701 182.621 32.006C181.998 28.8916 181.555 26.6893 181.026 25.0118C180.51 23.371 179.96 22.4039 179.225 21.6866C178.922 21.3862 178.592 21.1146 178.239 20.8753C177.391 20.2956 176.333 19.9472 174.621 19.7616C172.872 19.5737 170.626 19.5714 167.45 19.5714H163.552C160.376 19.5714 158.13 19.5737 156.379 19.7616Z"/>
</mask>
<path fill-rule="evenodd" clip-rule="evenodd" d="M165.5 10.4047C164.132 10.4047 162.821 10.948 161.854 11.915C160.887 12.8819 160.344 14.1935 160.344 15.561V16.1431C161.3 16.1354 162.335 16.1324 163.449 16.1339H167.551C168.666 16.1324 169.701 16.1354 170.656 16.1431V15.561C170.656 14.1935 170.113 12.8819 169.146 11.915C168.179 10.948 166.868 10.4047 165.5 10.4047ZM174.094 16.2645V15.561C174.094 13.2818 173.188 11.0959 171.577 9.48428C169.965 7.87263 167.779 6.96722 165.5 6.96722C163.221 6.96722 161.035 7.87263 159.423 9.48428C157.812 11.0959 156.906 13.2818 156.906 15.561V16.2645C156.598 16.2859 156.299 16.3126 156.01 16.3447C153.998 16.5624 152.314 17.0162 150.82 18.0406C150.307 18.3948 149.824 18.7903 149.376 19.2231C148.079 20.4881 147.302 22.051 146.695 23.9806C146.106 25.8574 145.629 28.2408 145.029 31.236L144.985 31.4537C144.123 35.7689 143.443 39.1697 143.248 41.8785C143.046 44.6468 143.326 46.9728 144.637 48.9918C145.077 49.6671 145.584 50.2858 146.158 50.8481C147.882 52.5301 150.109 53.2589 152.861 53.6072C155.556 53.9464 159.026 53.9464 163.426 53.9464H167.574C171.976 53.9464 175.444 53.9464 178.139 53.6072C180.891 53.2589 183.121 52.5301 184.842 50.8481C185.415 50.2867 185.925 49.6642 186.363 48.9918C187.674 46.9751 187.954 44.6468 187.754 41.8785C187.557 39.1697 186.879 35.7689 186.013 31.4537L185.971 31.236C185.373 28.2408 184.894 25.8574 184.305 23.9806C183.698 22.051 182.921 20.4881 181.624 19.2231C181.176 18.7903 180.693 18.3948 180.18 18.0406C178.686 17.0162 177.002 16.5624 174.99 16.3447C174.692 16.3127 174.394 16.2859 174.096 16.2645M156.379 19.7616C154.667 19.9449 153.611 20.2956 152.763 20.8753C152.411 21.1174 152.081 21.3888 151.775 21.6866C151.04 22.4039 150.492 23.371 149.974 25.0118C149.447 26.6916 149.002 28.8916 148.381 32.006C147.487 36.4701 146.853 39.6601 146.676 42.126C146.5 44.5597 146.795 46.0058 147.52 47.1195C147.819 47.5809 148.166 48.0041 148.56 48.3891C149.511 49.3172 150.87 49.8901 153.292 50.1972C155.744 50.5066 158.999 50.5089 163.55 50.5089H167.452C172.004 50.5089 175.253 50.5066 177.708 50.1972C180.13 49.8901 181.489 49.3172 182.44 48.3891C182.832 48.0049 183.181 47.5792 183.48 47.1195C184.205 46.0058 184.5 44.5597 184.326 42.1237C184.147 39.6578 183.512 36.4701 182.621 32.006C181.998 28.8916 181.555 26.6893 181.026 25.0118C180.51 23.371 179.96 22.4039 179.225 21.6866C178.922 21.3862 178.592 21.1146 178.239 20.8753C177.391 20.2956 176.333 19.9472 174.621 19.7616C172.872 19.5737 170.626 19.5714 167.45 19.5714H163.552C160.376 19.5714 158.13 19.5737 156.379 19.7616Z" fill="#00459E"/>
<path d="M165.5 10.4047V9.40472V10.4047ZM160.344 16.1431H159.344V17.1511L160.352 17.143L160.344 16.1431ZM163.449 16.1339L163.448 17.1339H163.449V16.1339ZM167.551 16.1339L167.551 17.1339L167.552 17.1339L167.551 16.1339ZM170.656 16.1431L170.648 17.143L171.656 17.1511V16.1431H170.656ZM165.5 6.96722V5.96722V6.96722ZM156.906 16.2645L156.975 17.2621L157.906 17.1976V16.2645H156.906ZM156.01 16.3447L156.118 17.3389L156.121 17.3386L156.01 16.3447ZM150.82 18.0406L150.254 17.2158L150.251 17.2179L150.82 18.0406ZM149.376 19.2231L148.681 18.5036L148.678 18.5072L149.376 19.2231ZM146.695 23.9806L145.741 23.6803L145.74 23.6812L146.695 23.9806ZM145.029 31.236L144.048 31.0394L144.048 31.0399L145.029 31.236ZM144.985 31.4537L144.004 31.2576L144.004 31.2579L144.985 31.4537ZM143.248 41.8785L144.245 41.9511L144.245 41.9502L143.248 41.8785ZM144.637 48.9918L143.798 49.5364L143.799 49.5377L144.637 48.9918ZM146.158 50.8481L145.459 51.5627L145.46 51.5637L146.158 50.8481ZM152.861 53.6072L152.736 54.5993L152.737 54.5994L152.861 53.6072ZM178.139 53.6072L178.263 54.5994L178.264 54.5993L178.139 53.6072ZM184.842 50.8481L185.541 51.5632L185.541 51.5626L184.842 50.8481ZM186.363 48.9918L187.201 49.5376L187.202 49.5368L186.363 48.9918ZM187.754 41.8785L188.752 41.8066L188.752 41.8059L187.754 41.8785ZM186.013 31.4537L185.03 31.6399L185.032 31.6505L186.013 31.4537ZM185.971 31.236L186.954 31.0498L186.952 31.0401L185.971 31.236ZM184.305 23.9806L185.26 23.6812L185.259 23.6803L184.305 23.9806ZM181.624 19.2231L182.322 18.5071L182.319 18.5036L181.624 19.2231ZM180.18 18.0406L180.749 17.2179L180.746 17.2158L180.18 18.0406ZM174.99 16.3447L175.097 15.3505L175.097 15.3505L174.99 16.3447ZM156.379 19.7616L156.486 20.7559L156.486 20.7559L156.379 19.7616ZM152.763 20.8753L152.198 20.0499L152.196 20.0517L152.763 20.8753ZM151.775 21.6866L151.077 20.9702L151.077 20.9706L151.775 21.6866ZM149.974 25.0118L149.02 24.7108L149.02 24.7124L149.974 25.0118ZM148.381 32.006L149.362 32.2023L149.362 32.2015L148.381 32.006ZM146.676 42.126L147.674 42.1983L147.674 42.1973L146.676 42.126ZM147.52 47.1195L148.358 46.5751L148.358 46.5744L147.52 47.1195ZM148.56 48.3891L147.861 49.1045L147.862 49.1048L148.56 48.3891ZM153.292 50.1972L153.167 51.1893L153.167 51.1894L153.292 50.1972ZM177.708 50.1972L177.833 51.1894L177.833 51.1893L177.708 50.1972ZM182.44 48.3891L183.138 49.1048L183.14 49.1031L182.44 48.3891ZM183.48 47.1195L184.318 47.6657L184.319 47.6646L183.48 47.1195ZM184.326 42.1237L185.323 42.0524L185.323 42.0514L184.326 42.1237ZM182.621 32.006L183.602 31.8101L183.602 31.8097L182.621 32.006ZM181.026 25.0118L180.072 25.3116L180.072 25.3127L181.026 25.0118ZM179.225 21.6866L178.52 22.3963L178.527 22.4026L179.225 21.6866ZM178.239 20.8753L177.675 21.7008L177.678 21.703L178.239 20.8753ZM174.621 19.7616L174.729 18.7674L174.728 18.7673L174.621 19.7616ZM165.5 9.40472C163.867 9.40472 162.301 10.0533 161.147 11.2078L162.561 12.6221C163.341 11.8426 164.398 11.4047 165.5 11.4047V9.40472ZM161.147 11.2078C159.992 12.3624 159.344 13.9282 159.344 15.561H161.344C161.344 14.4587 161.782 13.4015 162.561 12.6221L161.147 11.2078ZM159.344 15.561V16.1431H161.344V15.561H159.344ZM160.352 17.143C161.305 17.1354 162.336 17.1324 163.448 17.1339L163.45 15.1339C162.334 15.1324 161.296 15.1354 160.336 15.1431L160.352 17.143ZM163.449 17.1339H167.551V15.1339H163.449V17.1339ZM167.552 17.1339C168.665 17.1324 169.697 17.1354 170.648 17.143L170.664 15.1431C169.706 15.1354 168.668 15.1324 167.55 15.1339L167.552 17.1339ZM171.656 16.1431V15.561H169.656V16.1431H171.656ZM171.656 15.561C171.656 13.9282 171.008 12.3624 169.853 11.2078L168.439 12.6221C169.218 13.4015 169.656 14.4587 169.656 15.561H171.656ZM169.853 11.2078C168.699 10.0533 167.133 9.40472 165.5 9.40472V11.4047C166.602 11.4047 167.659 11.8426 168.439 12.6221L169.853 11.2078ZM175.094 16.2645V15.561H173.094V16.2645H175.094ZM175.094 15.561C175.094 13.0166 174.083 10.5763 172.284 8.77717L170.87 10.1914C172.294 11.6155 173.094 13.547 173.094 15.561H175.094ZM172.284 8.77717C170.485 6.97799 168.044 5.96722 165.5 5.96722V7.96722C167.514 7.96722 169.445 8.76728 170.87 10.1914L172.284 8.77717ZM165.5 5.96722C162.956 5.96722 160.515 6.97799 158.716 8.77717L160.13 10.1914C161.554 8.76728 163.486 7.96722 165.5 7.96722V5.96722ZM158.716 8.77717C156.917 10.5763 155.906 13.0166 155.906 15.561H157.906C157.906 13.547 158.706 11.6155 160.13 10.1914L158.716 8.77717ZM155.906 15.561V16.2645H157.906V15.561H155.906ZM156.837 15.2669C156.516 15.2892 156.203 15.3171 155.9 15.3508L156.121 17.3386C156.395 17.3081 156.68 17.2826 156.975 17.2621L156.837 15.2669ZM155.903 15.3505C153.804 15.5776 151.937 16.0621 150.254 17.2158L151.385 18.8653C152.691 17.9702 154.193 17.5472 156.118 17.3389L155.903 15.3505ZM150.251 17.2179C149.694 17.6031 149.169 18.0331 148.681 18.5036L150.07 19.9425C150.48 19.5475 150.92 19.1866 151.388 18.8632L150.251 17.2179ZM148.678 18.5072C147.217 19.9313 146.375 21.6665 145.741 23.6803L147.648 24.2808C148.229 22.4355 148.94 21.0448 150.074 19.939L148.678 18.5072ZM145.74 23.6812C145.132 25.6204 144.644 28.0644 144.048 31.0394L146.009 31.4325C146.613 28.4171 147.079 26.0944 147.649 24.28L145.74 23.6812ZM144.048 31.0399L144.004 31.2576L145.966 31.6498L146.009 31.4321L144.048 31.0399ZM144.004 31.2579C143.148 35.5478 142.451 39.0207 142.25 41.8067L144.245 41.9502C144.435 39.3188 145.099 35.99 145.966 31.6495L144.004 31.2579ZM142.251 41.8058C142.042 44.672 142.316 47.2544 143.798 49.5364L145.475 48.4472C144.335 46.6912 144.051 44.6216 144.245 41.9511L142.251 41.8058ZM143.799 49.5377C144.279 50.274 144.832 50.9493 145.459 51.5627L146.858 50.1334C146.336 49.6223 145.875 49.0602 145.474 48.4459L143.799 49.5377ZM145.46 51.5637C147.408 53.4649 149.888 54.2388 152.736 54.5993L152.987 52.6151C150.331 52.2789 148.356 51.5954 146.857 50.1324L145.46 51.5637ZM152.737 54.5994C155.508 54.9482 159.051 54.9464 163.426 54.9464V52.9464C159.001 52.9464 155.605 52.9446 152.986 52.615L152.737 54.5994ZM163.426 54.9464H167.574V52.9464H163.426V54.9464ZM167.574 54.9464C171.951 54.9464 175.492 54.9482 178.263 54.5994L178.014 52.615C175.395 52.9446 172.002 52.9464 167.574 52.9464V54.9464ZM178.264 54.5993C181.112 54.2389 183.595 53.4651 185.541 51.5632L184.143 50.1329C182.647 51.5952 180.67 52.2789 178.013 52.6151L178.264 54.5993ZM185.541 51.5626C186.167 50.9502 186.723 50.2711 187.201 49.5376L185.525 48.446C185.127 49.0573 184.663 49.6231 184.142 50.1335L185.541 51.5626ZM187.202 49.5368C188.684 47.2569 188.958 44.6719 188.752 41.8066L186.757 41.9503C186.949 44.6217 186.665 46.6933 185.525 48.4468L187.202 49.5368ZM188.752 41.8059C188.549 39.0202 187.855 35.5485 186.993 31.2569L185.032 31.6505C185.903 35.9893 186.566 39.3193 186.757 41.951L188.752 41.8059ZM186.995 31.2675L186.954 31.0498L184.989 31.4221L185.03 31.6398L186.995 31.2675ZM186.952 31.0401C186.358 28.0636 185.868 25.6204 185.26 23.6812L183.351 24.28C183.921 26.0944 184.389 28.418 184.991 31.4318L186.952 31.0401ZM185.259 23.6803C184.625 21.6665 183.783 19.9313 182.322 18.5072L180.926 19.939C182.06 21.0448 182.771 22.4355 183.352 24.2808L185.259 23.6803ZM182.319 18.5036C181.831 18.0331 181.306 17.6031 180.749 17.2179L179.612 18.8632C180.08 19.1866 180.52 19.5475 180.93 19.9425L182.319 18.5036ZM180.746 17.2158C179.063 16.0621 177.196 15.5776 175.097 15.3505L174.882 17.3389C176.807 17.5472 178.309 17.9702 179.615 18.8653L180.746 17.2158ZM175.097 15.3505C174.788 15.3172 174.478 15.2894 174.168 15.2671L174.024 17.2619C174.311 17.2825 174.597 17.3082 174.883 17.339L175.097 15.3505ZM156.273 18.7673C154.471 18.9602 153.233 19.3422 152.198 20.0499L153.327 21.7008C153.988 21.2489 154.864 20.9296 156.486 20.7559L156.273 18.7673ZM152.196 20.0517C151.798 20.3258 151.424 20.6331 151.077 20.9702L152.473 22.403C152.738 22.1445 153.025 21.909 153.33 21.699L152.196 20.0517ZM151.077 20.9706C150.178 21.8471 149.565 22.9865 149.02 24.7108L150.928 25.3128C151.419 23.7554 151.901 22.9606 152.473 22.4026L151.077 20.9706ZM149.02 24.7124C148.473 26.4551 148.018 28.7162 147.401 31.8104L149.362 32.2015C149.987 29.067 150.421 26.9281 150.928 25.3112L149.02 24.7124ZM147.401 31.8097C146.512 36.2472 145.861 39.5106 145.679 42.0546L147.674 42.1973C147.845 39.8096 148.463 36.6931 149.362 32.2023L147.401 31.8097ZM145.679 42.0537C145.495 44.5847 145.786 46.2876 146.681 47.6646L148.358 46.5744C147.805 45.7239 147.504 44.5347 147.674 42.1983L145.679 42.0537ZM146.681 47.6639C147.02 48.1874 147.414 48.6679 147.861 49.1045L149.259 47.6737C148.917 47.3403 148.618 46.9744 148.358 46.5751L146.681 47.6639ZM147.862 49.1048C149.037 50.2518 150.648 50.87 153.167 51.1893L153.418 49.2052C151.092 48.9103 149.985 48.3827 149.258 47.6734L147.862 49.1048ZM153.167 51.1894C155.697 51.5085 159.026 51.5089 163.55 51.5089V49.5089C158.971 49.5089 155.792 49.5047 153.417 49.2051L153.167 51.1894ZM163.55 51.5089H167.452V49.5089H163.55V51.5089ZM167.452 51.5089C171.976 51.5089 175.301 51.5085 177.833 51.1894L177.583 49.2051C175.206 49.5047 172.031 49.5089 167.452 49.5089V51.5089ZM177.833 51.1893C180.352 50.87 181.963 50.2518 183.138 49.1048L181.742 47.6734C181.015 48.3827 179.908 48.9103 177.582 49.2052L177.833 51.1893ZM183.14 49.1031C183.584 48.6681 183.979 48.1861 184.318 47.6657L182.643 46.5733C182.383 46.9723 182.08 47.3417 181.74 47.6751L183.14 49.1031ZM184.319 47.6646C185.214 46.2877 185.505 44.585 185.323 42.0524L183.329 42.195C183.496 44.5344 183.195 45.7238 182.642 46.5744L184.319 47.6646ZM185.323 42.0514C185.139 39.5082 184.488 36.2473 183.602 31.8101L181.64 32.2018C182.537 36.6929 183.156 39.8075 183.329 42.196L185.323 42.0514ZM183.602 31.8097C182.983 28.7176 182.529 26.4522 181.98 24.7109L180.072 25.3127C180.582 26.9264 181.013 29.0656 181.64 32.2022L183.602 31.8097ZM181.98 24.712C181.438 22.9857 180.821 21.8466 179.923 20.9706L178.527 22.4026C179.099 22.9611 179.583 23.7563 180.072 25.3116L181.98 24.712ZM179.929 20.9769C179.583 20.6328 179.205 20.3217 178.801 20.0476L177.678 21.703C177.98 21.9075 178.262 22.1396 178.52 22.3963L179.929 20.9769ZM178.804 20.0499C177.768 19.3416 176.528 18.9625 174.729 18.7674L174.513 20.7558C176.138 20.9319 177.015 21.2495 177.675 21.7008L178.804 20.0499ZM174.728 18.7673C172.913 18.5723 170.604 18.5714 167.45 18.5714V20.5714C170.649 20.5714 172.831 20.575 174.514 20.7559L174.728 18.7673ZM167.45 18.5714H163.552V20.5714H167.45V18.5714ZM163.552 18.5714C160.398 18.5714 158.089 18.5723 156.272 18.7673L156.486 20.7559C158.171 20.575 160.354 20.5714 163.552 20.5714V18.5714Z" fill="#00459E" mask="url(#path-4-outside-1_4_55)"/>
</svg>
